<mxfile host="app.diagrams.net" agent="Mozilla/5.0 (Windows NT 10.0; Win64; x64) AppleWebKit/537.36 (KHTML, like Gecko) Chrome/127.0.0.0 Safari/537.36" version="24.7.7">
  <diagram name="Page-1" id="pgy9I5oYHcWPJ9aGwN5I">
    <mxGraphModel dx="875" dy="464" grid="1" gridSize="10" guides="1" tooltips="1" connect="1" arrows="1" fold="1" page="1" pageScale="1" pageWidth="850" pageHeight="1100" math="0" shadow="0">
      <root>
        <mxCell id="0" />
        <mxCell id="1" parent="0" />
        <mxCell id="iatrL-qNKA81DHMAHy29-2" value="HoaDon" style="rounded=0;whiteSpace=wrap;html=1;fillColor=#F5AB50;strokeColor=#909090;labelBackgroundColor=none;fontColor=#1A1A1A;" parent="1" vertex="1">
          <mxGeometry x="360" y="415" width="120" height="60" as="geometry" />
        </mxCell>
        <mxCell id="iatrL-qNKA81DHMAHy29-4" value="ChiTietHoaDon" style="rounded=0;whiteSpace=wrap;html=1;fillColor=#F5AB50;strokeColor=#909090;labelBackgroundColor=none;fontColor=#1A1A1A;" parent="1" vertex="1">
          <mxGeometry x="360" y="120" width="120" height="60" as="geometry" />
        </mxCell>
        <mxCell id="iatrL-qNKA81DHMAHy29-5" value="SanPham" style="rounded=0;whiteSpace=wrap;html=1;fillColor=#F5AB50;strokeColor=#909090;labelBackgroundColor=none;fontColor=#1A1A1A;" parent="1" vertex="1">
          <mxGeometry x="720" y="120" width="120" height="60" as="geometry" />
        </mxCell>
        <mxCell id="iatrL-qNKA81DHMAHy29-6" value="MaHD" style="ellipse;whiteSpace=wrap;html=1;labelBackgroundColor=none;fillColor=#F5AB50;strokeColor=#909090;fontColor=#1A1A1A;" parent="1" vertex="1">
          <mxGeometry x="520" y="410" width="100" height="70" as="geometry" />
        </mxCell>
        <mxCell id="iatrL-qNKA81DHMAHy29-7" value="MaHD" style="ellipse;whiteSpace=wrap;html=1;labelBackgroundColor=none;fillColor=#F5AB50;strokeColor=#909090;fontColor=#1A1A1A;" parent="1" vertex="1">
          <mxGeometry x="220" y="80" width="100" height="70" as="geometry" />
        </mxCell>
        <mxCell id="iatrL-qNKA81DHMAHy29-8" value="MaSP" style="ellipse;whiteSpace=wrap;html=1;labelBackgroundColor=none;fillColor=#F5AB50;strokeColor=#909090;fontColor=#1A1A1A;" parent="1" vertex="1">
          <mxGeometry x="310" y="20" width="100" height="70" as="geometry" />
        </mxCell>
        <mxCell id="iatrL-qNKA81DHMAHy29-9" value="SoLuong" style="ellipse;whiteSpace=wrap;html=1;labelBackgroundColor=none;fillColor=#F5AB50;strokeColor=#909090;fontColor=#1A1A1A;" parent="1" vertex="1">
          <mxGeometry x="310" y="210" width="100" height="70" as="geometry" />
        </mxCell>
        <mxCell id="iatrL-qNKA81DHMAHy29-10" value="DonGia" style="ellipse;whiteSpace=wrap;html=1;labelBackgroundColor=none;fillColor=#F5AB50;strokeColor=#909090;fontColor=#1A1A1A;" parent="1" vertex="1">
          <mxGeometry x="730" y="210" width="100" height="70" as="geometry" />
        </mxCell>
        <mxCell id="iatrL-qNKA81DHMAHy29-11" value="TongTien" style="ellipse;whiteSpace=wrap;html=1;labelBackgroundColor=none;fillColor=#F5AB50;strokeColor=#909090;fontColor=#1A1A1A;" parent="1" vertex="1">
          <mxGeometry x="220" y="410" width="100" height="70" as="geometry" />
        </mxCell>
        <mxCell id="iatrL-qNKA81DHMAHy29-12" value="ThanhTien" style="ellipse;whiteSpace=wrap;html=1;labelBackgroundColor=none;fillColor=#F5AB50;strokeColor=#909090;fontColor=#1A1A1A;" parent="1" vertex="1">
          <mxGeometry x="220" y="160" width="100" height="70" as="geometry" />
        </mxCell>
        <mxCell id="iatrL-qNKA81DHMAHy29-13" value="MaSP" style="ellipse;whiteSpace=wrap;html=1;labelBackgroundColor=none;fillColor=#F5AB50;strokeColor=#909090;fontColor=#1A1A1A;" parent="1" vertex="1">
          <mxGeometry x="730" y="20" width="100" height="70" as="geometry" />
        </mxCell>
        <mxCell id="iatrL-qNKA81DHMAHy29-14" value="TenSP" style="ellipse;whiteSpace=wrap;html=1;labelBackgroundColor=none;fillColor=#F5AB50;strokeColor=#909090;fontColor=#1A1A1A;" parent="1" vertex="1">
          <mxGeometry x="870" y="115" width="100" height="70" as="geometry" />
        </mxCell>
        <mxCell id="iatrL-qNKA81DHMAHy29-16" value="" style="endArrow=none;html=1;rounded=0;entryX=0;entryY=0.5;entryDx=0;entryDy=0;exitX=1;exitY=0.5;exitDx=0;exitDy=0;labelBackgroundColor=none;strokeColor=#182E3E;fontColor=default;" parent="1" source="iatrL-qNKA81DHMAHy29-11" target="iatrL-qNKA81DHMAHy29-2" edge="1">
          <mxGeometry width="50" height="50" relative="1" as="geometry">
            <mxPoint x="10" y="560" as="sourcePoint" />
            <mxPoint x="60" y="510" as="targetPoint" />
          </mxGeometry>
        </mxCell>
        <mxCell id="iatrL-qNKA81DHMAHy29-17" value="" style="endArrow=none;html=1;rounded=0;entryX=0;entryY=0.5;entryDx=0;entryDy=0;exitX=1;exitY=0.5;exitDx=0;exitDy=0;labelBackgroundColor=none;strokeColor=#182E3E;fontColor=default;" parent="1" source="iatrL-qNKA81DHMAHy29-2" target="iatrL-qNKA81DHMAHy29-6" edge="1">
          <mxGeometry width="50" height="50" relative="1" as="geometry">
            <mxPoint x="150" y="560" as="sourcePoint" />
            <mxPoint x="200" y="510" as="targetPoint" />
          </mxGeometry>
        </mxCell>
        <mxCell id="iatrL-qNKA81DHMAHy29-21" value="" style="endArrow=none;html=1;rounded=0;entryX=0.5;entryY=1;entryDx=0;entryDy=0;exitX=0.5;exitY=0;exitDx=0;exitDy=0;labelBackgroundColor=none;strokeColor=#182E3E;fontColor=default;" parent="1" source="iatrL-qNKA81DHMAHy29-22" target="iatrL-qNKA81DHMAHy29-4" edge="1">
          <mxGeometry width="50" height="50" relative="1" as="geometry">
            <mxPoint x="420" y="280" as="sourcePoint" />
            <mxPoint x="470" y="300" as="targetPoint" />
          </mxGeometry>
        </mxCell>
        <mxCell id="iatrL-qNKA81DHMAHy29-22" value="Của" style="rhombus;whiteSpace=wrap;html=1;labelBackgroundColor=none;fillColor=#F5AB50;strokeColor=#909090;fontColor=#1A1A1A;" parent="1" vertex="1">
          <mxGeometry x="380" y="280" width="80" height="60" as="geometry" />
        </mxCell>
        <mxCell id="iatrL-qNKA81DHMAHy29-23" value="" style="endArrow=none;html=1;rounded=0;entryX=0.5;entryY=1;entryDx=0;entryDy=0;exitX=0.5;exitY=0;exitDx=0;exitDy=0;labelBackgroundColor=none;strokeColor=#182E3E;fontColor=default;" parent="1" source="iatrL-qNKA81DHMAHy29-2" target="iatrL-qNKA81DHMAHy29-22" edge="1">
          <mxGeometry width="50" height="50" relative="1" as="geometry">
            <mxPoint x="180" y="400" as="sourcePoint" />
            <mxPoint x="230" y="350" as="targetPoint" />
          </mxGeometry>
        </mxCell>
        <mxCell id="iatrL-qNKA81DHMAHy29-24" value="Gồm" style="rhombus;whiteSpace=wrap;html=1;labelBackgroundColor=none;fillColor=#F5AB50;strokeColor=#909090;fontColor=#1A1A1A;" parent="1" vertex="1">
          <mxGeometry x="560" y="120" width="80" height="60" as="geometry" />
        </mxCell>
        <mxCell id="iatrL-qNKA81DHMAHy29-25" value="" style="endArrow=none;html=1;rounded=0;entryX=0;entryY=0.5;entryDx=0;entryDy=0;exitX=1;exitY=0.5;exitDx=0;exitDy=0;labelBackgroundColor=none;strokeColor=#182E3E;fontColor=default;" parent="1" source="iatrL-qNKA81DHMAHy29-4" target="iatrL-qNKA81DHMAHy29-24" edge="1">
          <mxGeometry width="50" height="50" relative="1" as="geometry">
            <mxPoint x="580" y="290" as="sourcePoint" />
            <mxPoint x="630" y="240" as="targetPoint" />
          </mxGeometry>
        </mxCell>
        <mxCell id="iatrL-qNKA81DHMAHy29-26" value="" style="endArrow=none;html=1;rounded=0;entryX=0;entryY=0.5;entryDx=0;entryDy=0;exitX=1;exitY=0.5;exitDx=0;exitDy=0;labelBackgroundColor=none;strokeColor=#182E3E;fontColor=default;" parent="1" source="iatrL-qNKA81DHMAHy29-24" target="iatrL-qNKA81DHMAHy29-5" edge="1">
          <mxGeometry width="50" height="50" relative="1" as="geometry">
            <mxPoint x="490" y="160" as="sourcePoint" />
            <mxPoint x="570" y="160" as="targetPoint" />
          </mxGeometry>
        </mxCell>
        <mxCell id="iatrL-qNKA81DHMAHy29-27" value="" style="endArrow=none;html=1;rounded=0;entryX=0;entryY=0.5;entryDx=0;entryDy=0;exitX=1;exitY=0.5;exitDx=0;exitDy=0;labelBackgroundColor=none;strokeColor=#182E3E;fontColor=default;" parent="1" source="iatrL-qNKA81DHMAHy29-5" target="iatrL-qNKA81DHMAHy29-14" edge="1">
          <mxGeometry width="50" height="50" relative="1" as="geometry">
            <mxPoint x="890" y="320" as="sourcePoint" />
            <mxPoint x="940" y="270" as="targetPoint" />
          </mxGeometry>
        </mxCell>
        <mxCell id="iatrL-qNKA81DHMAHy29-28" value="" style="endArrow=none;html=1;rounded=0;entryX=0.5;entryY=1;entryDx=0;entryDy=0;exitX=0.5;exitY=0;exitDx=0;exitDy=0;labelBackgroundColor=none;strokeColor=#182E3E;fontColor=default;" parent="1" source="iatrL-qNKA81DHMAHy29-10" target="iatrL-qNKA81DHMAHy29-5" edge="1">
          <mxGeometry width="50" height="50" relative="1" as="geometry">
            <mxPoint x="850" y="160" as="sourcePoint" />
            <mxPoint x="880" y="160" as="targetPoint" />
          </mxGeometry>
        </mxCell>
        <mxCell id="iatrL-qNKA81DHMAHy29-29" value="" style="endArrow=none;html=1;rounded=0;exitX=0.5;exitY=1;exitDx=0;exitDy=0;labelBackgroundColor=none;strokeColor=#182E3E;fontColor=default;" parent="1" source="iatrL-qNKA81DHMAHy29-13" target="iatrL-qNKA81DHMAHy29-5" edge="1">
          <mxGeometry width="50" height="50" relative="1" as="geometry">
            <mxPoint x="850" y="160" as="sourcePoint" />
            <mxPoint x="880" y="160" as="targetPoint" />
          </mxGeometry>
        </mxCell>
        <mxCell id="iatrL-qNKA81DHMAHy29-30" value="" style="endArrow=none;html=1;rounded=0;entryX=0.25;entryY=1;entryDx=0;entryDy=0;exitX=0.5;exitY=0;exitDx=0;exitDy=0;labelBackgroundColor=none;strokeColor=#182E3E;fontColor=default;" parent="1" source="iatrL-qNKA81DHMAHy29-9" target="iatrL-qNKA81DHMAHy29-4" edge="1">
          <mxGeometry width="50" height="50" relative="1" as="geometry">
            <mxPoint x="180" y="320" as="sourcePoint" />
            <mxPoint x="230" y="270" as="targetPoint" />
          </mxGeometry>
        </mxCell>
        <mxCell id="iatrL-qNKA81DHMAHy29-31" value="" style="endArrow=none;html=1;rounded=0;entryX=0;entryY=0.5;entryDx=0;entryDy=0;exitX=1;exitY=0;exitDx=0;exitDy=0;labelBackgroundColor=none;strokeColor=#182E3E;fontColor=default;" parent="1" source="iatrL-qNKA81DHMAHy29-12" target="iatrL-qNKA81DHMAHy29-4" edge="1">
          <mxGeometry width="50" height="50" relative="1" as="geometry">
            <mxPoint x="110" y="390" as="sourcePoint" />
            <mxPoint x="160" y="340" as="targetPoint" />
          </mxGeometry>
        </mxCell>
        <mxCell id="iatrL-qNKA81DHMAHy29-32" value="" style="endArrow=none;html=1;rounded=0;entryX=1;entryY=1;entryDx=0;entryDy=0;exitX=0;exitY=0.5;exitDx=0;exitDy=0;labelBackgroundColor=none;strokeColor=#182E3E;fontColor=default;" parent="1" source="iatrL-qNKA81DHMAHy29-4" target="iatrL-qNKA81DHMAHy29-7" edge="1">
          <mxGeometry width="50" height="50" relative="1" as="geometry">
            <mxPoint x="316" y="180" as="sourcePoint" />
            <mxPoint x="370" y="160" as="targetPoint" />
          </mxGeometry>
        </mxCell>
        <mxCell id="iatrL-qNKA81DHMAHy29-33" value="" style="endArrow=none;html=1;rounded=0;entryX=0.5;entryY=1;entryDx=0;entryDy=0;exitX=0.25;exitY=0;exitDx=0;exitDy=0;labelBackgroundColor=none;strokeColor=#182E3E;fontColor=default;" parent="1" source="iatrL-qNKA81DHMAHy29-4" target="iatrL-qNKA81DHMAHy29-8" edge="1">
          <mxGeometry width="50" height="50" relative="1" as="geometry">
            <mxPoint x="370" y="160" as="sourcePoint" />
            <mxPoint x="316" y="150" as="targetPoint" />
          </mxGeometry>
        </mxCell>
        <mxCell id="iatrL-qNKA81DHMAHy29-34" value="HoaDon" style="swimlane;fontStyle=0;childLayout=stackLayout;horizontal=1;startSize=30;horizontalStack=0;resizeParent=1;resizeParentMax=0;resizeLast=0;collapsible=1;marginBottom=0;whiteSpace=wrap;html=1;labelBackgroundColor=none;fillColor=#F5AB50;strokeColor=#909090;fontColor=#1A1A1A;" parent="1" vertex="1">
          <mxGeometry x="200" y="1080" width="240" height="240" as="geometry" />
        </mxCell>
        <mxCell id="iatrL-qNKA81DHMAHy29-35" value="-MaHD : String" style="text;strokeColor=none;fillColor=none;align=left;verticalAlign=middle;spacingLeft=4;spacingRight=4;overflow=hidden;points=[[0,0.5],[1,0.5]];portConstraint=eastwest;rotatable=0;whiteSpace=wrap;html=1;labelBackgroundColor=none;fontColor=#1A1A1A;" parent="iatrL-qNKA81DHMAHy29-34" vertex="1">
          <mxGeometry y="30" width="240" height="30" as="geometry" />
        </mxCell>
        <mxCell id="iatrL-qNKA81DHMAHy29-36" value="-TongTien: int" style="text;strokeColor=none;fillColor=none;align=left;verticalAlign=middle;spacingLeft=4;spacingRight=4;overflow=hidden;points=[[0,0.5],[1,0.5]];portConstraint=eastwest;rotatable=0;whiteSpace=wrap;html=1;labelBackgroundColor=none;fontColor=#1A1A1A;" parent="iatrL-qNKA81DHMAHy29-34" vertex="1">
          <mxGeometry y="60" width="240" height="30" as="geometry" />
        </mxCell>
        <mxCell id="oo3lGRZh2qsD1dncb8WA-1" value="-ChiTietHoaDon : List&amp;lt;ChiTietHoaDon&amp;gt;" style="text;strokeColor=none;fillColor=none;align=left;verticalAlign=middle;spacingLeft=4;spacingRight=4;overflow=hidden;points=[[0,0.5],[1,0.5]];portConstraint=eastwest;rotatable=0;whiteSpace=wrap;html=1;labelBackgroundColor=none;fontColor=#1A1A1A;" parent="iatrL-qNKA81DHMAHy29-34" vertex="1">
          <mxGeometry y="90" width="240" height="30" as="geometry" />
        </mxCell>
        <mxCell id="oo3lGRZh2qsD1dncb8WA-15" value="" style="swimlane;startSize=0;labelBackgroundColor=none;fillColor=#F5AB50;strokeColor=#909090;fontColor=#1A1A1A;" parent="iatrL-qNKA81DHMAHy29-34" vertex="1">
          <mxGeometry y="120" width="240" height="120" as="geometry" />
        </mxCell>
        <mxCell id="oo3lGRZh2qsD1dncb8WA-2" value="ChiTietHoaDon" style="swimlane;fontStyle=0;childLayout=stackLayout;horizontal=1;startSize=30;horizontalStack=0;resizeParent=1;resizeParentMax=0;resizeLast=0;collapsible=1;marginBottom=0;whiteSpace=wrap;html=1;labelBackgroundColor=none;fillColor=#F5AB50;strokeColor=#909090;fontColor=#1A1A1A;" parent="1" vertex="1">
          <mxGeometry x="200" y="650" width="240" height="270" as="geometry" />
        </mxCell>
        <mxCell id="oo3lGRZh2qsD1dncb8WA-3" value="-MaHD : String" style="text;strokeColor=none;fillColor=none;align=left;verticalAlign=middle;spacingLeft=4;spacingRight=4;overflow=hidden;points=[[0,0.5],[1,0.5]];portConstraint=eastwest;rotatable=0;whiteSpace=wrap;html=1;labelBackgroundColor=none;fontColor=#1A1A1A;" parent="oo3lGRZh2qsD1dncb8WA-2" vertex="1">
          <mxGeometry y="30" width="240" height="30" as="geometry" />
        </mxCell>
        <mxCell id="oo3lGRZh2qsD1dncb8WA-4" value="-MaSP : String" style="text;strokeColor=none;fillColor=none;align=left;verticalAlign=middle;spacingLeft=4;spacingRight=4;overflow=hidden;points=[[0,0.5],[1,0.5]];portConstraint=eastwest;rotatable=0;whiteSpace=wrap;html=1;labelBackgroundColor=none;fontColor=#1A1A1A;" parent="oo3lGRZh2qsD1dncb8WA-2" vertex="1">
          <mxGeometry y="60" width="240" height="30" as="geometry" />
        </mxCell>
        <mxCell id="oo3lGRZh2qsD1dncb8WA-5" value="-SoLuong : int&amp;nbsp;" style="text;strokeColor=none;fillColor=none;align=left;verticalAlign=middle;spacingLeft=4;spacingRight=4;overflow=hidden;points=[[0,0.5],[1,0.5]];portConstraint=eastwest;rotatable=0;whiteSpace=wrap;html=1;labelBackgroundColor=none;fontColor=#1A1A1A;" parent="oo3lGRZh2qsD1dncb8WA-2" vertex="1">
          <mxGeometry y="90" width="240" height="30" as="geometry" />
        </mxCell>
        <mxCell id="oo3lGRZh2qsD1dncb8WA-10" value="-ThanhTien : int&amp;nbsp;" style="text;strokeColor=none;fillColor=none;align=left;verticalAlign=middle;spacingLeft=4;spacingRight=4;overflow=hidden;points=[[0,0.5],[1,0.5]];portConstraint=eastwest;rotatable=0;whiteSpace=wrap;html=1;labelBackgroundColor=none;fontColor=#1A1A1A;" parent="oo3lGRZh2qsD1dncb8WA-2" vertex="1">
          <mxGeometry y="120" width="240" height="30" as="geometry" />
        </mxCell>
        <mxCell id="oo3lGRZh2qsD1dncb8WA-14" value="" style="swimlane;startSize=0;labelBackgroundColor=none;fillColor=#F5AB50;strokeColor=#909090;fontColor=#1A1A1A;" parent="oo3lGRZh2qsD1dncb8WA-2" vertex="1">
          <mxGeometry y="150" width="240" height="120" as="geometry" />
        </mxCell>
        <mxCell id="oo3lGRZh2qsD1dncb8WA-6" value="SanPham" style="swimlane;fontStyle=0;childLayout=stackLayout;horizontal=1;startSize=30;horizontalStack=0;resizeParent=1;resizeParentMax=0;resizeLast=0;collapsible=1;marginBottom=0;whiteSpace=wrap;html=1;labelBackgroundColor=none;fillColor=#F5AB50;strokeColor=#909090;fontColor=#1A1A1A;" parent="1" vertex="1">
          <mxGeometry x="600" y="880" width="240" height="240" as="geometry" />
        </mxCell>
        <mxCell id="oo3lGRZh2qsD1dncb8WA-7" value="-MaSP : String" style="text;strokeColor=none;fillColor=none;align=left;verticalAlign=middle;spacingLeft=4;spacingRight=4;overflow=hidden;points=[[0,0.5],[1,0.5]];portConstraint=eastwest;rotatable=0;whiteSpace=wrap;html=1;labelBackgroundColor=none;fontColor=#1A1A1A;" parent="oo3lGRZh2qsD1dncb8WA-6" vertex="1">
          <mxGeometry y="30" width="240" height="30" as="geometry" />
        </mxCell>
        <mxCell id="oo3lGRZh2qsD1dncb8WA-8" value="-TenSP : String" style="text;strokeColor=none;fillColor=none;align=left;verticalAlign=middle;spacingLeft=4;spacingRight=4;overflow=hidden;points=[[0,0.5],[1,0.5]];portConstraint=eastwest;rotatable=0;whiteSpace=wrap;html=1;labelBackgroundColor=none;fontColor=#1A1A1A;" parent="oo3lGRZh2qsD1dncb8WA-6" vertex="1">
          <mxGeometry y="60" width="240" height="30" as="geometry" />
        </mxCell>
        <mxCell id="oo3lGRZh2qsD1dncb8WA-9" value="-DonGia : int" style="text;strokeColor=none;fillColor=none;align=left;verticalAlign=middle;spacingLeft=4;spacingRight=4;overflow=hidden;points=[[0,0.5],[1,0.5]];portConstraint=eastwest;rotatable=0;whiteSpace=wrap;html=1;labelBackgroundColor=none;fontColor=#1A1A1A;" parent="oo3lGRZh2qsD1dncb8WA-6" vertex="1">
          <mxGeometry y="90" width="240" height="30" as="geometry" />
        </mxCell>
        <mxCell id="oo3lGRZh2qsD1dncb8WA-16" value="" style="swimlane;startSize=0;labelBackgroundColor=none;fillColor=#F5AB50;strokeColor=#909090;fontColor=#1A1A1A;" parent="oo3lGRZh2qsD1dncb8WA-6" vertex="1">
          <mxGeometry y="120" width="240" height="120" as="geometry" />
        </mxCell>
        <mxCell id="oo3lGRZh2qsD1dncb8WA-17" value="" style="endArrow=none;html=1;rounded=0;exitX=1;exitY=0;exitDx=0;exitDy=0;entryX=0;entryY=0;entryDx=0;entryDy=0;labelBackgroundColor=none;strokeColor=#182E3E;fontColor=default;" parent="1" source="oo3lGRZh2qsD1dncb8WA-14" target="oo3lGRZh2qsD1dncb8WA-16" edge="1">
          <mxGeometry width="50" height="50" relative="1" as="geometry">
            <mxPoint x="540" y="810" as="sourcePoint" />
            <mxPoint x="590" y="760" as="targetPoint" />
          </mxGeometry>
        </mxCell>
        <mxCell id="oo3lGRZh2qsD1dncb8WA-19" value="" style="endArrow=none;html=1;rounded=0;entryX=0;entryY=0;entryDx=0;entryDy=0;exitX=1;exitY=0;exitDx=0;exitDy=0;labelBackgroundColor=none;strokeColor=#182E3E;fontColor=default;" parent="1" source="oo3lGRZh2qsD1dncb8WA-15" target="oo3lGRZh2qsD1dncb8WA-16" edge="1">
          <mxGeometry width="50" height="50" relative="1" as="geometry">
            <mxPoint x="580" y="1350" as="sourcePoint" />
            <mxPoint x="630" y="1300" as="targetPoint" />
          </mxGeometry>
        </mxCell>
        <mxCell id="hbpmXmNC0Xrfs7MLQCuF-13" style="edgeStyle=orthogonalEdgeStyle;rounded=0;orthogonalLoop=1;jettySize=auto;html=1;entryX=0;entryY=0.5;entryDx=0;entryDy=0;" edge="1" parent="1" source="hbpmXmNC0Xrfs7MLQCuF-1" target="hbpmXmNC0Xrfs7MLQCuF-9">
          <mxGeometry relative="1" as="geometry" />
        </mxCell>
        <mxCell id="hbpmXmNC0Xrfs7MLQCuF-28" style="edgeStyle=orthogonalEdgeStyle;rounded=0;orthogonalLoop=1;jettySize=auto;html=1;entryX=0;entryY=0.5;entryDx=0;entryDy=0;" edge="1" parent="1" source="hbpmXmNC0Xrfs7MLQCuF-1" target="hbpmXmNC0Xrfs7MLQCuF-10">
          <mxGeometry relative="1" as="geometry" />
        </mxCell>
        <mxCell id="hbpmXmNC0Xrfs7MLQCuF-1" value="Staff" style="shape=umlActor;verticalLabelPosition=bottom;verticalAlign=top;html=1;outlineConnect=0;" vertex="1" parent="1">
          <mxGeometry x="1330" y="260" width="30" height="60" as="geometry" />
        </mxCell>
        <mxCell id="hbpmXmNC0Xrfs7MLQCuF-14" style="edgeStyle=orthogonalEdgeStyle;rounded=0;orthogonalLoop=1;jettySize=auto;html=1;entryX=1;entryY=0.5;entryDx=0;entryDy=0;" edge="1" parent="1" source="hbpmXmNC0Xrfs7MLQCuF-2" target="hbpmXmNC0Xrfs7MLQCuF-9">
          <mxGeometry relative="1" as="geometry" />
        </mxCell>
        <mxCell id="hbpmXmNC0Xrfs7MLQCuF-27" style="edgeStyle=orthogonalEdgeStyle;rounded=0;orthogonalLoop=1;jettySize=auto;html=1;entryX=1;entryY=0.5;entryDx=0;entryDy=0;" edge="1" parent="1" source="hbpmXmNC0Xrfs7MLQCuF-2" target="hbpmXmNC0Xrfs7MLQCuF-10">
          <mxGeometry relative="1" as="geometry" />
        </mxCell>
        <mxCell id="hbpmXmNC0Xrfs7MLQCuF-31" style="edgeStyle=orthogonalEdgeStyle;rounded=0;orthogonalLoop=1;jettySize=auto;html=1;entryX=1;entryY=0.5;entryDx=0;entryDy=0;" edge="1" parent="1" source="hbpmXmNC0Xrfs7MLQCuF-2" target="hbpmXmNC0Xrfs7MLQCuF-11">
          <mxGeometry relative="1" as="geometry" />
        </mxCell>
        <mxCell id="hbpmXmNC0Xrfs7MLQCuF-2" value="V.AN" style="shape=umlActor;verticalLabelPosition=bottom;verticalAlign=top;html=1;outlineConnect=0;" vertex="1" parent="1">
          <mxGeometry x="1680" y="260" width="30" height="60" as="geometry" />
        </mxCell>
        <mxCell id="hbpmXmNC0Xrfs7MLQCuF-9" value="&lt;font style=&quot;font-size: 8px;&quot;&gt;Xem Thông Kê&lt;/font&gt;" style="ellipse;whiteSpace=wrap;html=1;" vertex="1" parent="1">
          <mxGeometry x="1490" y="200" width="60" height="40" as="geometry" />
        </mxCell>
        <mxCell id="hbpmXmNC0Xrfs7MLQCuF-10" value="&lt;font style=&quot;font-size: 9px;&quot;&gt;Bán Hàng&lt;/font&gt;" style="ellipse;whiteSpace=wrap;html=1;" vertex="1" parent="1">
          <mxGeometry x="1490" y="280" width="60" height="40" as="geometry" />
        </mxCell>
        <mxCell id="hbpmXmNC0Xrfs7MLQCuF-11" value="&lt;font style=&quot;font-size: 9px;&quot;&gt;Quản Lí&lt;/font&gt;&lt;div&gt;&lt;font style=&quot;font-size: 9px;&quot;&gt;&amp;nbsp;Hóa Đơn&lt;/font&gt;&lt;/div&gt;" style="ellipse;whiteSpace=wrap;html=1;" vertex="1" parent="1">
          <mxGeometry x="1490" y="360" width="60" height="40" as="geometry" />
        </mxCell>
        <mxCell id="hbpmXmNC0Xrfs7MLQCuF-15" value="&lt;font size=&quot;1&quot;&gt;Thêm&lt;/font&gt;" style="ellipse;whiteSpace=wrap;html=1;" vertex="1" parent="1">
          <mxGeometry x="1400" y="440" width="60" height="40" as="geometry" />
        </mxCell>
        <mxCell id="hbpmXmNC0Xrfs7MLQCuF-16" value="&lt;font size=&quot;1&quot;&gt;Sửa&lt;/font&gt;" style="ellipse;whiteSpace=wrap;html=1;" vertex="1" parent="1">
          <mxGeometry x="1490" y="440" width="60" height="40" as="geometry" />
        </mxCell>
        <mxCell id="hbpmXmNC0Xrfs7MLQCuF-17" value="&lt;font size=&quot;1&quot;&gt;Xóa&lt;/font&gt;" style="ellipse;whiteSpace=wrap;html=1;" vertex="1" parent="1">
          <mxGeometry x="1580" y="440" width="60" height="40" as="geometry" />
        </mxCell>
        <mxCell id="hbpmXmNC0Xrfs7MLQCuF-18" value="" style="endArrow=none;html=1;rounded=0;entryX=0.5;entryY=1;entryDx=0;entryDy=0;exitX=1;exitY=0;exitDx=0;exitDy=0;" edge="1" parent="1" source="hbpmXmNC0Xrfs7MLQCuF-15" target="hbpmXmNC0Xrfs7MLQCuF-11">
          <mxGeometry width="50" height="50" relative="1" as="geometry">
            <mxPoint x="1440" y="460" as="sourcePoint" />
            <mxPoint x="1490" y="410" as="targetPoint" />
          </mxGeometry>
        </mxCell>
        <mxCell id="hbpmXmNC0Xrfs7MLQCuF-19" value="" style="endArrow=none;html=1;rounded=0;entryX=0.5;entryY=1;entryDx=0;entryDy=0;exitX=0.5;exitY=0;exitDx=0;exitDy=0;" edge="1" parent="1" source="hbpmXmNC0Xrfs7MLQCuF-16" target="hbpmXmNC0Xrfs7MLQCuF-11">
          <mxGeometry width="50" height="50" relative="1" as="geometry">
            <mxPoint x="1461" y="456" as="sourcePoint" />
            <mxPoint x="1530" y="410" as="targetPoint" />
          </mxGeometry>
        </mxCell>
        <mxCell id="hbpmXmNC0Xrfs7MLQCuF-20" value="" style="endArrow=none;html=1;rounded=0;entryX=0.5;entryY=1;entryDx=0;entryDy=0;exitX=0;exitY=0;exitDx=0;exitDy=0;" edge="1" parent="1" source="hbpmXmNC0Xrfs7MLQCuF-17" target="hbpmXmNC0Xrfs7MLQCuF-11">
          <mxGeometry width="50" height="50" relative="1" as="geometry">
            <mxPoint x="1530" y="450" as="sourcePoint" />
            <mxPoint x="1530" y="410" as="targetPoint" />
          </mxGeometry>
        </mxCell>
        <mxCell id="hbpmXmNC0Xrfs7MLQCuF-22" value="&lt;font style=&quot;font-size: 6px;&quot;&gt;&amp;lt;&amp;lt;Extend&amp;gt;&amp;gt;&lt;/font&gt;" style="text;html=1;align=center;verticalAlign=middle;whiteSpace=wrap;rounded=0;" vertex="1" parent="1">
          <mxGeometry x="1560" y="415" width="60" height="30" as="geometry" />
        </mxCell>
        <mxCell id="hbpmXmNC0Xrfs7MLQCuF-23" value="&lt;font style=&quot;font-size: 6px;&quot;&gt;&amp;lt;&amp;lt;Extend&amp;gt;&amp;gt;&lt;/font&gt;" style="text;html=1;align=center;verticalAlign=middle;whiteSpace=wrap;rounded=0;" vertex="1" parent="1">
          <mxGeometry x="1510" y="415" width="60" height="30" as="geometry" />
        </mxCell>
        <mxCell id="hbpmXmNC0Xrfs7MLQCuF-24" value="&lt;font style=&quot;font-size: 6px;&quot;&gt;&amp;lt;&amp;lt;Extend&amp;gt;&amp;gt;&lt;/font&gt;" style="text;html=1;align=center;verticalAlign=middle;whiteSpace=wrap;rounded=0;" vertex="1" parent="1">
          <mxGeometry x="1420" y="415" width="60" height="30" as="geometry" />
        </mxCell>
        <mxCell id="hbpmXmNC0Xrfs7MLQCuF-25" value="&lt;font style=&quot;font-size: 6px;&quot;&gt;&amp;lt;&amp;lt;Extend&amp;gt;&amp;gt;&lt;/font&gt;" style="text;html=1;align=center;verticalAlign=middle;whiteSpace=wrap;rounded=0;" vertex="1" parent="1">
          <mxGeometry x="1610" y="220" width="60" height="30" as="geometry" />
        </mxCell>
        <mxCell id="hbpmXmNC0Xrfs7MLQCuF-26" value="&lt;font style=&quot;font-size: 6px;&quot;&gt;&amp;lt;&amp;lt;Extend&amp;gt;&amp;gt;&lt;/font&gt;" style="text;html=1;align=center;verticalAlign=middle;whiteSpace=wrap;rounded=0;" vertex="1" parent="1">
          <mxGeometry x="1370" y="220" width="60" height="30" as="geometry" />
        </mxCell>
        <mxCell id="hbpmXmNC0Xrfs7MLQCuF-29" value="&lt;font style=&quot;font-size: 6px;&quot;&gt;&amp;lt;&amp;lt;Extend&amp;gt;&amp;gt;&lt;/font&gt;" style="text;html=1;align=center;verticalAlign=middle;whiteSpace=wrap;rounded=0;" vertex="1" parent="1">
          <mxGeometry x="1420" y="290" width="60" height="30" as="geometry" />
        </mxCell>
        <mxCell id="hbpmXmNC0Xrfs7MLQCuF-30" value="&lt;font style=&quot;font-size: 6px;&quot;&gt;&amp;lt;&amp;lt;Extend&amp;gt;&amp;gt;&lt;/font&gt;" style="text;html=1;align=center;verticalAlign=middle;whiteSpace=wrap;rounded=0;" vertex="1" parent="1">
          <mxGeometry x="1550" y="290" width="60" height="30" as="geometry" />
        </mxCell>
        <mxCell id="hbpmXmNC0Xrfs7MLQCuF-32" value="&lt;font style=&quot;font-size: 6px;&quot;&gt;&amp;lt;&amp;lt;Extend&amp;gt;&amp;gt;&lt;/font&gt;" style="text;html=1;align=center;verticalAlign=middle;whiteSpace=wrap;rounded=0;" vertex="1" parent="1">
          <mxGeometry x="1560" y="350" width="60" height="30" as="geometry" />
        </mxCell>
      </root>
    </mxGraphModel>
  </diagram>
</mxfile>
